<svg id="Layer_1" data-name="Layer 1" xmlns="http://www.w3.org/2000/svg" viewBox="0 0 133.13 133.13"><defs><style>.cls-1{fill:#fefcfc;}.cls-2{fill:#e42424;}.cls-3{fill:#e42323;}.cls-4{fill:#e42525;}.cls-5{fill:#e42627;}</style></defs><title>logo</title><path class="cls-1" d="M568,510c0,18-.06,36,.07,54,0,2.5-.57,3.07-3.07,3.06q-63.5-.13-127,0c-2.5,0-3.07-.56-3.06-3.06q.13-63.5,0-127c0-2.5.56-3.07,3.06-3.06q63.5.13,127,0c2.5,0,3.08.56,3.07,3.06-.11,24-.07,48-.07,72-4.45-3.12-8.85-1.77-13.14.3-8,3.85-15,9.17-22.43,13.94-15.3,9.88-31.05,18.65-49.7,20.21-11.53,1-22.6-.47-32.13-7.75-5.17-3.95-7.26-9.58-5.75-14.29,1.63-5.12,7.2-9,13.42-9.49a51.31,51.31,0,0,1,16.31,1.59c8.12,2,16.18,4.73,23.93-1.16a7.64,7.64,0,0,1,3.79-1.13c5.46-.51,11-1.32,15.75,3.06-18.4,4.46-34.17,16.78-54.66,14,3.3,3.52,6.47,4.85,10.33,4.88,6.11.05,11.77-1.75,17.4-3.83,10.75-4,20.61-10.32,32.33-11.76-3.47-8.28-12.13-13.23-21.61-9.89-10.16,3.58-19.21,2.25-29.08-.25-9.23-2.35-18.87-2.52-27.38,3.48-5.29,3.73-8.15,8.64-7.5,15.28.83,8.37,6.1,13.33,13.11,16.87,11.83,6,24.53,5.84,37.13,4.38,15-1.74,28.32-8.18,41-16.1,9.15-5.73,18.17-11.69,27.37-17.34C560,511.89,563.6,509.75,568,510Zm-32.42-17.52c-9.26-5.93-17.33,2.21-26.86,2.57,4-4.17,7.58-7.84,9.49-12.72,3.35-8.57-.39-14.13-9.45-14.4-7.63-.23-12.67,4-17.22,9.32-9.94-11.74-20.27-14.92-29.13-9.1-7,4.61-9.13,13.54-5.37,21.55,3.58,7.64,14.61,15.38,22.63,11.32-5.06-2.17-9.72-4.71-13.1-9-4.68-6-4.79-12.91-.33-17.16,5.3-5.05,13.26-5.08,19-.14,2.26,1.94,3.59,4.58,5.44,7.06,3.71-4.17,7.87-7.32,13.38-8.36,3.34-.63,6.43-.26,8.72,2.29,2.47,2.74.93,5.63-.44,8.32-3.06,6-7.77,10.61-14.08,15.11C512.25,501.85,523.08,492.42,535.58,492.48ZM524.48,510c12.79,2,23.5-8,36.35-6.19-3.76-5.28-8.52-3.91-13.06-2.63C539.83,503.45,532.67,507.95,524.48,510Zm-10.15-7.08c3.35,3.49,6.62,2.57,9.44,1.73,8.83-2.63,17-7.57,26.6-7.69C537.21,491.27,527,502.17,514.33,502.93Z" transform="translate(-434.94 -433.94)"/><path class="cls-2" d="M568,510c-4.4-.25-8,1.89-11.54,4-9.2,5.65-18.22,11.61-27.37,17.34-12.64,7.92-26,14.37-41,16.1-12.6,1.46-25.31,1.59-37.13-4.38-7-3.54-12.28-8.5-13.11-16.87-.66-6.64,2.2-11.54,7.5-15.28,8.51-6,18.14-5.83,27.38-3.48,9.86,2.51,18.91,3.83,29.08.25,9.49-3.34,18.15,1.61,21.61,9.89-11.72,1.43-21.58,7.78-32.33,11.76-5.64,2.08-11.3,3.89-17.4,3.83-3.86,0-7-1.36-10.33-4.88,20.49,2.74,36.26-9.58,54.66-14-4.71-4.38-10.29-3.56-15.75-3.06a7.64,7.64,0,0,0-3.79,1.13c-7.76,5.9-15.81,3.2-23.93,1.16a51.31,51.31,0,0,0-16.31-1.59c-6.21.45-11.78,4.38-13.42,9.49-1.5,4.71.58,10.34,5.75,14.29,9.53,7.28,20.6,8.71,32.13,7.75,18.65-1.57,34.4-10.33,49.7-20.21,7.4-4.78,14.46-10.1,22.43-13.94,4.29-2.07,8.69-3.42,13.14-.3Z" transform="translate(-434.94 -433.94)"/><path class="cls-3" d="M535.58,492.48c-12.5-.05-23.33,9.38-37.31,6.65,6.3-4.5,11-9.09,14.08-15.11,1.37-2.69,2.91-5.58.44-8.32-2.3-2.55-5.39-2.92-8.72-2.29-5.51,1-9.67,4.19-13.38,8.36-1.85-2.49-3.18-5.12-5.44-7.06-5.76-4.94-13.72-4.92-19,.14-4.46,4.25-4.35,11.18.33,17.16,3.37,4.31,8,6.84,13.1,9-8,4.06-19-3.68-22.63-11.32-3.76-8-1.64-16.94,5.37-21.55,8.86-5.83,19.19-2.64,29.13,9.1,4.55-5.29,9.59-9.55,17.22-9.32,9.07.27,12.8,5.84,9.45,14.4-1.91,4.89-5.51,8.55-9.49,12.72C518.24,494.68,526.32,486.55,535.58,492.48Z" transform="translate(-434.94 -433.94)"/><path class="cls-4" d="M524.48,510c8.19-2.07,15.35-6.57,23.29-8.81,4.54-1.28,9.31-2.65,13.06,2.63C548,502,537.27,512,524.48,510Z" transform="translate(-434.94 -433.94)"/><path class="cls-5" d="M514.33,502.93c12.71-.77,22.88-11.66,36-6-9.6.11-17.77,5.05-26.6,7.69C521,505.5,517.68,506.42,514.33,502.93Z" transform="translate(-434.94 -433.94)"/></svg>